<svg width="512" height="512" viewBox="0 0 512 512" fill="none" xmlns="http://www.w3.org/2000/svg">
<g clip-path="url(#clip0_85_191)">
<rect width="512" height="512" fill="#3B82F6"/>
<path d="M208.781 202.607C208.372 193.427 205.105 186.663 198.98 182.314C194.08 183.764 190.098 185.576 187.035 187.75C183.973 189.924 181.727 192.098 180.297 194.272C178.868 196.205 176.316 200.07 172.641 205.868C171.416 207.801 170.088 210.458 168.659 213.84C167.434 217.222 166.719 219.276 166.515 220C165.903 221.691 165.596 223.503 165.596 225.436C165.596 226.885 165.801 229.18 166.209 232.321C166.822 235.22 167.026 237.515 166.822 239.206C166.617 242.829 166.719 248.506 167.128 256.237L167.434 267.47C167.434 270.852 167.332 273.389 167.128 275.08C166.719 278.945 165.699 282.327 164.065 285.226C162.432 288.125 160.186 289.575 157.327 289.575C156.306 289.575 154.979 289.212 153.346 288.488C151.916 288.004 149.568 287.159 146.301 285.951C143.035 284.743 140.482 282.931 138.645 280.515C136.807 277.858 135.888 274.114 135.888 269.282C135.888 256.72 134.867 237.877 132.826 212.753C132.417 210.096 132.009 205.626 131.6 199.345C131.396 196.688 130.375 194.635 128.538 193.185C126.7 191.736 124.454 191.011 121.8 191.011C117.512 191.011 114.245 192.34 111.999 194.997C102.607 201.278 95.7669 208.405 91.4791 216.377C87.1913 224.349 85.0474 234.616 85.0474 247.178L85.3537 259.498C85.3537 267.47 83.6182 274.838 80.1471 281.603C79.1262 283.777 76.9823 285.709 73.7154 287.4C70.6527 288.85 67.9984 289.333 65.7524 288.85C63.7106 288.608 61.5667 287.038 59.3207 284.139C57.2789 280.999 56.258 278.221 56.258 275.805C55.6455 255.512 55.3392 235.341 55.3392 215.29C55.3392 197.171 55.5434 183.643 55.9518 174.705C56.156 170.115 57.4831 166.491 59.9333 163.834C62.3834 161.176 65.3441 159.848 68.8151 159.848C73.3071 159.848 77.2886 161.78 80.7597 165.645C82.5973 169.752 84.1286 172.772 85.3537 174.705C86.5788 176.396 87.906 177.241 89.3352 177.241C90.5603 177.241 91.9896 176.516 93.623 175.067C95.2564 173.376 97.5024 170.719 100.361 167.095C107.099 158.398 114.143 154.05 121.494 154.05C129.457 154.05 139.053 158.76 150.283 168.182C151.1 168.907 152.223 169.994 153.652 171.443C155.081 172.651 156.306 173.255 157.327 173.255C158.756 173.255 161.002 171.323 164.065 167.457C175.499 154.895 189.996 148.01 207.555 146.802C213.068 146.561 218.581 149.097 224.094 154.412C229.811 159.485 233.384 165.645 234.814 172.893C237.264 185.213 238.999 199.708 240.02 216.377C241.245 241.501 241.756 260.344 241.551 272.906C241.347 278.704 240.02 283.294 237.57 286.676C235.12 289.816 231.955 291.386 228.076 291.386C225.013 291.386 221.746 290.299 218.275 288.125C216.846 287.4 215.518 286.072 214.293 284.139C213.068 282.207 212.456 280.515 212.456 279.066L210.618 240.655C210.414 236.548 210.21 231.354 210.006 225.073C209.801 218.551 209.393 211.062 208.781 202.607Z" fill="white"/>
<path d="M428.989 275.838C428.58 266.658 424.088 259.136 417.963 254.787C409.398 254.787 407.551 257.532 404.488 259.706C401.425 261.881 398.202 265.949 396.773 268.123C395.344 270.055 395.299 272.543 391.624 278.341C390.399 280.274 389.072 282.931 387.642 286.313C386.417 289.695 385.703 291.749 385.498 292.474C384.886 294.165 384.58 295.976 384.58 297.909C384.58 299.359 384.784 301.654 385.192 304.794C385.805 307.693 386.009 309.988 385.805 311.679C385.6 315.303 385.703 320.98 386.111 328.71L386.417 339.944C386.417 343.326 386.315 345.862 386.111 347.553C385.703 351.418 384.682 354.801 383.048 357.699C381.415 360.598 379.169 362.048 376.31 362.048C375.289 362.048 373.962 361.685 372.329 360.961C370.899 360.478 368.551 359.632 365.285 358.424C362.018 357.216 359.465 355.404 357.628 352.989C355.79 350.331 354.871 346.587 354.871 341.755C354.871 329.193 353.85 310.35 351.809 285.226C351.4 282.569 350.992 278.1 350.584 271.819C350.379 269.161 349.358 267.108 347.521 265.658C345.683 264.209 343.437 263.484 340.783 263.484C336.495 263.484 326.778 265.465 324.532 268.123C315.14 274.404 314.75 280.878 310.462 288.85C306.174 296.822 304.031 307.089 304.031 319.651L304.337 336.857C304.337 344.829 305.56 346.925 302.089 353.689C301.068 355.864 295.965 358.183 292.699 359.874C289.636 361.323 286.981 361.806 284.736 361.323C282.694 361.082 280.55 359.511 278.304 356.612C276.262 353.472 275.241 350.694 275.241 348.278C274.629 327.985 272.631 307.812 272.631 287.761C272.631 269.643 274.527 256.116 274.935 247.178C275.139 242.588 276.466 238.964 278.916 236.307C281.367 233.649 284.327 232.321 287.798 232.321C292.29 232.321 296.514 232.696 299.985 236.561C301.822 240.668 303.112 245.245 304.337 247.178C305.562 248.869 306.889 249.714 308.318 249.714C309.543 249.714 310.973 248.99 312.606 247.54C314.24 245.849 317.466 239.93 320.324 236.307C327.062 227.61 333.126 226.523 340.477 226.523C348.44 226.523 358.036 231.234 369.266 240.655C370.083 241.38 371.206 242.467 372.635 243.917C374.064 245.124 375.289 245.728 376.31 245.728C377.74 245.728 379.985 243.796 383.048 239.93C394.482 227.368 400.404 221.638 417.963 220.43C423.476 220.188 437.564 221.571 443.077 226.885C448.794 231.958 455.124 238.481 456.553 245.728C459.003 258.049 457.982 272.181 459.003 288.85C460.228 313.974 460.739 332.817 460.535 345.379C460.33 351.177 459.003 355.767 456.553 359.149C454.103 362.289 450.938 363.86 447.059 363.86C443.996 363.86 440.729 362.773 437.258 360.598C435.829 359.874 434.502 358.545 433.276 356.612C432.051 354.68 431.439 352.989 431.439 351.539L429.601 313.128C429.397 309.022 429.193 303.828 428.989 297.547C428.785 291.024 429.601 284.293 428.989 275.838Z" fill="white"/>
<path d="M101.28 331.609C88.2632 330.703 57.062 331.609 52.2765 345.198C47.4911 358.787 57.1768 364.222 64.5273 364.222C73.7154 364.222 117.359 362.41 127.313 361.504C137.266 360.598 171.722 360.598 183.207 361.504C194.692 362.41 226.85 360.598 233.742 356.069C240.633 351.539 241.398 331.609 233.742 325.268C226.085 318.926 216.897 322.55 202.349 325.268C187.801 327.985 149.517 331.609 143.392 331.609C137.266 331.609 114.296 332.515 101.28 331.609Z" fill="white"/>
<path d="M323.325 164.921C310.309 164.015 279.873 157.673 275.088 171.262C270.303 184.851 278.968 194.716 286.318 194.716C295.506 194.716 334.811 191.192 344.764 190.286C354.718 189.38 394.533 187.569 406.018 188.475C417.504 189.38 448.641 191.092 455.533 186.563C462.424 182.033 464.975 171.262 457.319 164.921C449.662 158.579 439.708 162.103 424.395 159.485C409.818 156.993 373.86 162.103 367.735 162.103C361.609 162.103 336.342 165.827 323.325 164.921Z" fill="white"/>
</g>
<defs>
<clipPath id="clip0_85_191">
<rect width="512" height="512" rx="100" fill="white"/>
</clipPath>
</defs>
</svg>
